<?xml version="1.0" encoding="UTF-8"?>
<svg xmlns="http://www.w3.org/2000/svg" version="1.1" viewBox="0 0 500 500">
  <!-- Generator: Adobe Illustrator 28.7.2, SVG Export Plug-In . SVG Version: 1.2.0 Build 154)  -->
  <g>
    <g id="_レイヤー_1" data-name="レイヤー_1">
      <g>
        <path d="M209,239.1c-.3,0-.7.1-1,.4l.8-1.6c0,.3.3.4.5.4h5.7v-2.1c0-.3-.2-.6-.5-.7l3.8-2.4c0,.8.5,1.3,1.3,1.3s.4,0,.6-.2c-.3.8-.9,1.5-1.6,1.5s-1.2-.6-1.5-1.3l-.2.2c-.3.2-.3.4-.3,1.2v2.4h6.8c.3,0,.7-.1,1-.4l-.8,1.6c-.1-.3-.3-.4-.5-.4h-6.5v5.2c1.2-.3,2.4-.6,3.5-.6,4.4,0,6.4,2.7,6.4,5.6s-2.4,6.3-5,6.3-3.2-1-3.2-3.2,0-1.9,1.6-4.4l1.7,1.2c-.8.2-2,2.3-2,3.8s.6,2,1.6,2c1.9,0,3.6-2.7,3.6-5.5s-1.8-5-4.8-5-2.4.2-3.4.6v5.3c0,3.1-1.5,5-3.4,5s-3.8-1.3-3.8-3.8,2.5-5.2,5.8-6.6v-5.8h-6ZM215,245.7c-2.6,1.4-4.2,3.9-4.2,5.7s1.1,3.1,2.2,3.1,2-1.4,2-4.6v-4.2h0ZM225.4,241.9v-2.8c0-2.1-.2-2.5-.4-2.9l1.8.6v5.8c0,0,0,0,.1.1l.5-.6.3.4-1.6,1.8c-.3-.6-.9-1-1.5-1s-.4,0-.7.1c.3-1.1.8-1.6,1.4-1.6Z"/>
        <path d="M229.9,240.6c.9-.2,2.1-.4,3.4-.6l-.4-4.6c0-.3-.2-.6-.6-.6l2.6-2,.2.4c-.5.5-.7.8-.7,1.3s0,.2,0,.4l.5,4.8c1.8-.3,3.7-.6,5.4-.8v-3c0-.3-.2-.6-.5-.7l3.8-2.3c0,.8.5,1.3,1.3,1.3s.4,0,.6-.1c-.3.8-.8,1.5-1.5,1.5s-1.2-.5-1.5-1.3l-.3.2c-.3.2-.3.4-.3,1.2v3.1c.7,0,1.3,0,1.9,0,3.8,0,5.4,2.1,5.4,5s-2.9,6.4-8.4,7.4l-.3-.7c4.9-1.2,7-3.8,7-6.7s-1.4-4-3.8-4-1.1,0-1.8.2v7.5h-1.5v-7.3c-1.6.3-3.5.7-5.2,1.1l1.4,13.4c0,0,0,0,0,0l.5-.7.4.3-1.4,2c-.3-.5-.9-.8-1.6-.8s-.6,0-.9.2c.2-1.1.7-1.6,1.3-1.8l-1.3-12.5c-1.5.4-2.9.9-3.6,1.2l-.6-3.1h.4c0-.1.2.8.2.8Z"/>
        <path d="M251.5,239c-.3,0-.7.2-1,.4l.8-1.6c.1.3.3.4.5.4h10.9v-2.4c0-.3-.2-.6-.5-.7l3.8-2.3c0,.7.5,1.2,1.3,1.2s.4,0,.6-.1c-.3.8-.9,1.5-1.5,1.5s-1.2-.4-1.5-1.2l-.2.2c-.3.2-.3.4-.3,1.2v2.7h3.4l1.2-1.1c.3.7,1,1.4,1.8,1.4s.2,0,.2,0c-.4.8-.9,1.4-1.7,1.4s-.9-.4-1.3-.9h-3.7v5.2c.9,1,1.7,2.7,1.7,4.7,0,4.4-2.8,7.5-11.2,7.9l-.3-.8c8-.8,9.8-4,9.8-7.1s0-1.1,0-1.5c-.5,1.8-2.1,3.7-4.8,3.7s-4.7-1.5-4.7-3.8,2.6-4.9,5.5-4.9,1.9.3,2.6.7v-4.1h-11.2ZM262.9,246.3c0-1.9-1-3.3-3-3.3s-3.7,1.9-3.7,4,1.4,3.3,3.2,3.3,3.5-2.2,3.5-4Z"/>
        <path d="M292,244.6c0,0,.2,0,.3,0-.4.9-.8,1.5-1.5,1.5s-.8-.4-1.2-.9h-1.2c-.6,4.9-2,8.8-3.7,11.3l-.5-.4c1.2-2.3,2.1-6.1,2.6-10.9h-5.7c-.6,6.8-2.2,8.5-5.2,8.5s-3.7-1.6-3.7-3.9,1.8-5.4,6.1-5.4h1.2c.1-2.1.2-4.7.2-7.8h-6.6c-.3,0-.7.1-1,.4l.8-1.6c0,.3.3.4.5.4h6.3l1-1.1c.3.7,1,1.4,1.9,1.4s.2,0,.2,0c-.4.8-.8,1.3-1.5,1.4,0,2.7,0,5-.2,6.9h5.8c.2-2.2.3-4.7.3-7.3s0-.6-.3-.9l3.2.9v.5c-.2,0-.3,0-.4,0-.5,0-1,.3-1,1,0,2-.1,4-.3,5.8h.9l1-1c.3.7.8,1.3,1.5,1.3ZM279.6,245.1h-1.1c-2.9,0-4.6,2-4.6,4.7s1,2.9,2.2,2.9c2,0,3-2.1,3.5-7.6Z"/>
        <path d="M294.2,247.3h2.1l2.6,6.9c0,0,.1,0,.2.1l.5-.8.4.3-1.4,2.2c-.3-.4-.9-.7-1.5-.7s-.7.1-1,.3c0-.9.4-1.5.9-1.7l-1.6-4.5c-.7-1.6-.9-1.9-1.3-2.2Z"/>
        <path d="M326.8,248.8c2.4,1.3,6.1,3.9,7.1,4.8l-1.2,2.1c0-.8-3.7-3.6-6-5v.2c0,2.7-1.7,4.8-4.9,4.8s-4.6-1.5-4.6-4,2-4.5,5.1-4.5,2,.2,2.8.7v-4.3h-9.2c-.3,0-.7.2-1,.4l.8-1.6c.1.3.3.4.5.4h8.9v-4.3h-9.2c-.3,0-.7.1-1,.4l.8-1.6c.1.3.3.4.5.4h8.9v-1.9c0-.3-.2-.6-.5-.7l2.8-1.8.2.4c-.8.5-.9.9-.9,1.6v2.3h3.8l1.1-1.1c.3.7.9,1.4,1.6,1.4s.2,0,.3,0c-.4.8-.9,1.4-1.6,1.4s-.9-.4-1.2-.9h-4.1v4.3h3.8l1.1-1.1c.3.7.9,1.4,1.6,1.4s.2,0,.3,0c-.4.8-.9,1.4-1.6,1.4s-.9-.4-1.2-.9h-4.1v5.3h0ZM325.3,250.9c0-1.6-1.2-3-2.8-3s-3.4,1.8-3.4,3.6,1.3,3.1,2.9,3.1c1.8,0,3.3-1.7,3.3-3.8Z"/>
        <path d="M336.3,254.5c2.5-4.4,4.2-11.5,5-16h-4.5c-.3,0-.7.1-1,.4l.8-1.6c.1.3.3.4.5.4h4.3c.2-1,.2-1.9.2-2.4s0-.6-.4-.9l3.1-.9v.5c-.8.3-1.1.5-1.1,1.2,0,.6-.1,1.4-.3,2.5h9.9l1.2-1.1c.3.7,1,1.4,1.8,1.4s.2,0,.3,0c-.4.8-1,1.4-1.7,1.4s-.9-.3-1.3-.9h-10.3c-.8,4.8-2.6,12.5-5.4,17.4l-1.7-1c.3-.1.5-.3.6-.5ZM354.8,243c.1,0,.2,0,.3,0-.4.8-.9,1.4-1.6,1.4s-.9-.4-1.2-.9h-8.4c-.3,0-.7.1-1,.4l.8-1.6c0,.3.3.4.5.4h7.8l1.1-1.1c.3.7.9,1.4,1.7,1.4ZM343.7,251.4c0-1.7,1-3.2,1-3.5s0-.5-.1-.7l2.8,1.4-.2.4c-.2-.1-.4-.2-.6-.2-.3,0-.6.2-.8.4-.4.6-.6,1.2-.6,2,0,1.6.8,2.7,4.1,2.7s4.4-.9,4.9-1.9l.7,2.2c-1.4.6-3,1.2-5.7,1.2-4.2,0-5.6-1.8-5.6-4.2Z"/>
        <path d="M358.1,238.5c-.3,0-.7.1-1,.4l.8-1.6c.1.3.3.4.5.4h5.4v-1.7c0-.3-.2-.6-.5-.7l3.8-2.4c0,.8.5,1.3,1.3,1.3s.4,0,.6-.2c-.3.8-.9,1.5-1.6,1.5s-1.2-.5-1.5-1.3l-.3.2c-.3.2-.3.5-.3,1.2v2h9l1.2-1.1c.3.7,1,1.4,1.8,1.4s.2,0,.2,0c-.4.8-.9,1.4-1.7,1.4s-.9-.3-1.2-.9h-9.3v3.9c1-.3,2-.4,3.1-.4s.9,0,1.3,0c0-.3,0-.7,0-1s0-.6-.4-.9h3.3v.5c-.7,0-1.1.7-1.3,1.8,3.2,1,5.1,3.6,5.1,6.7s-2.9,6.4-9.2,7.1l-.2-.7c5.4-.8,7.8-3.6,7.8-6.4s-1-4.6-3.7-5.6c-1.6,7.1-5.7,11.3-9.5,11.3s-3.6-1.3-3.6-3.9,2.2-6.4,5.8-7.9v-4.5h-5.6ZM361.5,253.9c.8,0,1.5-.2,2.2-.6v-9.1c-2.6,1.6-4.2,4.4-4.2,6.7s1.2,2.9,2.1,2.9ZM365.1,243.6v8.7c2.2-2.1,3.8-6,4.3-9.1-.4,0-.8,0-1.2,0-1.1,0-2.1.2-3.1.6Z"/>
        <path d="M397.2,245.2c-4,8.4-6.7,10.2-10.2,10.2s-5-1.5-5-5.6v-13c0-.3-.2-.6-.5-.7l3.9-2.4c.1.8.6,1.3,1.3,1.3s.4,0,.6-.1c-.3.8-.9,1.5-1.6,1.5s-1.2-.5-1.5-1.3l-.3.2c-.3.2-.3.5-.3,1.3v13c0,3.7,1.2,5.1,3.6,5.1s4.9-2.3,8.8-10.7h2.3c-.4.3-.7.6-1,1.3Z"/>
        <path d="M400.2,254.5c2.5-4.4,4.2-11.5,5-16h-4.5c-.3,0-.7.1-1,.4l.8-1.6c.1.3.3.4.5.4h4.3c.2-1,.2-1.9.2-2.4s0-.6-.4-.9l3.1-.9v.5c-.8.3-1.1.5-1.1,1.2,0,.6-.1,1.4-.3,2.5h9.9l1.2-1.1c.3.7,1,1.4,1.8,1.4s.2,0,.3,0c-.4.8-1,1.4-1.7,1.4s-.9-.3-1.3-.9h-10.3c-.8,4.8-2.6,12.5-5.4,17.4l-1.7-1c.3-.1.5-.3.6-.5ZM418.7,243c.1,0,.2,0,.3,0-.4.8-.9,1.4-1.6,1.4s-.9-.4-1.2-.9h-8.4c-.3,0-.7.1-1,.4l.8-1.6c0,.3.3.4.5.4h7.8l1.1-1.1c.3.7.9,1.4,1.7,1.4ZM407.6,251.4c0-1.7,1-3.2,1-3.5s0-.5-.1-.7l2.8,1.4-.2.4c-.2-.1-.4-.2-.6-.2-.3,0-.6.2-.8.4-.4.6-.6,1.2-.6,2,0,1.6.8,2.7,4.1,2.7s4.4-.9,4.9-1.9l.7,2.2c-1.4.6-3,1.2-5.7,1.2-4.2,0-5.6-1.8-5.6-4.2Z"/>
      </g>
    </g>
  </g>
</svg>