<?xml version="1.0" encoding="UTF-8"?>
<svg id="_レイヤー_2" data-name="レイヤー_2" xmlns="http://www.w3.org/2000/svg" viewBox="0 0 211.92 24.07">
  <g id="_レイヤー_1-2" data-name="レイヤー_1">
    <g>
      <path d="M1.02,6.4c-.34,0-.73.13-1.02.37l.82-1.59c.09.29.32.42.5.42h5.7v-2.12c0-.31-.16-.6-.54-.71L10.25.42c.02.76.54,1.33,1.34,1.33.2,0,.39-.05.57-.16-.32.81-.91,1.49-1.59,1.49-.75,0-1.23-.55-1.54-1.31l-.25.18c-.29.21-.29.44-.29,1.25v2.38h6.79c.34,0,.73-.13,1.04-.37l-.82,1.59c-.11-.29-.32-.42-.52-.42h-6.49v5.25c1.16-.34,2.36-.55,3.54-.55,4.36,0,6.38,2.69,6.38,5.56,0,3.89-2.43,6.32-4.97,6.32-1.75,0-3.16-1.02-3.16-3.24,0-.99.09-1.85,1.61-4.44l1.68,1.2c-.77.16-2.04,2.27-2.04,3.76,0,1.12.61,1.99,1.63,1.99,1.93,0,3.56-2.66,3.56-5.51s-1.79-4.99-4.79-4.99c-1.25,0-2.38.21-3.43.58v5.28c0,3.06-1.52,4.96-3.43,4.96-2.02,0-3.81-1.28-3.81-3.79,0-2.64,2.54-5.2,5.77-6.58v-5.8H1.02v.02ZM7.02,13.01c-2.63,1.44-4.22,3.89-4.22,5.69,0,2.06,1.14,3.11,2.25,3.11,1.32,0,1.98-1.44,1.98-4.62v-4.18h0ZM17.44,9.22v-2.77c0-2.09-.16-2.51-.41-2.87l1.82.63v5.75c.05.03.09.08.14.13l.54-.55.32.37-1.61,1.78c-.32-.63-.89-1.04-1.54-1.04-.2,0-.43.03-.66.13.26-1.12.76-1.56,1.4-1.56Z"/>
      <path d="M21.87,7.91c.89-.16,2.07-.37,3.38-.6l-.45-4.55c-.02-.29-.23-.57-.61-.63L26.8.12l.2.42c-.54.5-.73.78-.73,1.28,0,.13,0,.24.02.39l.5,4.83c1.77-.29,3.68-.57,5.4-.78v-3c0-.31-.16-.6-.54-.71l3.75-2.27c.05.76.5,1.28,1.29,1.28.2,0,.39-.05.57-.13-.32.81-.84,1.49-1.5,1.49-.73,0-1.2-.52-1.52-1.31l-.27.18c-.3.21-.3.42-.3,1.23v3.11c.68-.05,1.29-.08,1.86-.08,3.77,0,5.43,2.12,5.43,5.04,0,3.81-2.88,6.42-8.42,7.39l-.29-.71c4.93-1.23,7.02-3.79,7.02-6.69,0-2.35-1.41-4.02-3.77-4.02-.48,0-1.11.05-1.82.16v7.47h-1.48v-7.26c-1.63.29-3.52.68-5.24,1.12l1.36,13.45c.05.03.07.05.09.08l.5-.68.36.31-1.45,2.04c-.34-.5-.93-.84-1.57-.84-.3,0-.59.08-.89.23.18-1.1.73-1.62,1.34-1.75l-1.27-12.46c-1.54.44-2.86.86-3.59,1.23l-.61-3.08.43-.1.21.93Z"/>
      <path d="M43.53,6.24c-.34,0-.7.16-1.02.39l.79-1.62c.11.29.32.42.5.42h10.88v-2.4c0-.31-.16-.6-.54-.71l3.84-2.32c.05.73.5,1.2,1.27,1.2.18,0,.39-.03.57-.13-.32.84-.86,1.49-1.54,1.49s-1.2-.44-1.52-1.23l-.25.18c-.29.21-.29.44-.29,1.25v2.66h3.41l1.16-1.07c.29.7,1,1.44,1.84,1.44.07,0,.16,0,.23-.03-.43.78-.91,1.36-1.66,1.36-.43,0-.91-.37-1.27-.89h-3.7v5.17c.93.99,1.72,2.66,1.72,4.73,0,4.42-2.84,7.47-11.19,7.94l-.29-.81c8.01-.76,9.81-4,9.81-7.13,0-.55-.04-1.07-.09-1.51-.48,1.78-2.13,3.68-4.84,3.68-2.93,0-4.66-1.51-4.66-3.81,0-3.11,2.57-4.91,5.45-4.91,1.04,0,1.91.26,2.57.7v-4.05h-11.18ZM54.88,13.58c0-1.93-1-3.32-2.95-3.32s-3.7,1.91-3.7,4.02,1.43,3.32,3.18,3.32c2.18,0,3.47-2.22,3.47-4.02Z"/>
      <path d="M84.04,11.83c.09,0,.2,0,.29-.03-.41.89-.75,1.51-1.52,1.51-.43,0-.84-.39-1.16-.91h-1.18c-.64,4.91-1.95,8.8-3.68,11.31l-.48-.39c1.23-2.32,2.13-6.11,2.61-10.92h-5.74c-.59,6.82-2.22,8.51-5.25,8.51-2.11,0-3.66-1.62-3.66-3.92,0-2.64,1.77-5.41,6.13-5.41h1.25c.14-2.12.21-4.68.21-7.76h-6.61c-.32,0-.7.13-1,.37l.79-1.62c.09.29.32.44.5.44h6.29l1.02-1.1c.3.71,1.04,1.44,1.86,1.44.07,0,.16,0,.23-.03-.41.76-.79,1.31-1.48,1.36,0,2.72-.09,4.99-.23,6.9h5.77c.18-2.22.3-4.68.3-7.29,0-.29-.09-.63-.3-.91l3.25.94-.11.5c-.11-.03-.23-.03-.34-.03-.52,0-.95.31-.95,1.02,0,2.04-.11,3.97-.29,5.77h.91l1.04-1.04c.28.69.8,1.29,1.53,1.29ZM71.62,12.41h-1.09c-2.86,0-4.61,1.99-4.61,4.7,0,1.78,1.04,2.9,2.22,2.9,2.03,0,3.05-2.09,3.48-7.6Z"/>
      <path d="M86.2,14.55h2.07l2.61,6.87c.07.03.14.08.21.13l.5-.76.39.29-1.36,2.2c-.34-.44-.89-.73-1.45-.73-.32,0-.66.11-.95.34.07-.91.39-1.49.89-1.72l-1.63-4.47c-.67-1.6-.92-1.92-1.28-2.15Z"/>
      <path d="M118.8,16.04c2.36,1.28,6.08,3.87,7.13,4.75l-1.16,2.06c0-.78-3.7-3.63-5.97-4.99v.21c0,2.74-1.66,4.81-4.86,4.81-2.82,0-4.56-1.52-4.56-4.02,0-2.25,2-4.54,5.09-4.54,1.07,0,2.04.23,2.79.7v-4.31h-9.17c-.34,0-.7.16-1.02.39l.79-1.62c.11.29.32.42.5.42h8.9v-4.34h-9.17c-.34,0-.7.13-1.02.39l.79-1.62c.11.29.32.42.5.42h8.9v-1.88c0-.31-.16-.6-.54-.7l2.82-1.8.2.44c-.79.52-.93.86-.93,1.62v2.32h3.79l1.11-1.07c.27.68.91,1.44,1.63,1.44.09,0,.2-.03.3-.05-.41.81-.86,1.38-1.59,1.38-.41,0-.86-.37-1.18-.89h-4.06v4.34h3.79l1.11-1.07c.27.68.91,1.44,1.63,1.44.09,0,.2-.03.3-.05-.41.81-.86,1.38-1.59,1.38-.41,0-.86-.37-1.18-.89h-4.06v5.33h-.01ZM117.26,18.15c0-1.64-1.18-2.98-2.79-2.98-1.93,0-3.38,1.75-3.38,3.63s1.32,3.13,2.91,3.13c1.78,0,3.26-1.74,3.26-3.78Z"/>
      <path d="M128.25,21.76c2.5-4.36,4.25-11.54,4.95-15.96h-4.47c-.34,0-.7.13-1.02.37l.79-1.62c.11.29.32.44.5.44h4.31c.16-1.04.23-1.88.23-2.43,0-.37-.07-.65-.41-.86l3.13-.89.09.47c-.86.26-1.18.52-1.23,1.25-.02.57-.11,1.44-.27,2.46h9.9l1.16-1.1c.32.68,1.02,1.44,1.82,1.44.11,0,.2,0,.3-.03-.43.78-.95,1.36-1.7,1.36-.43,0-.91-.34-1.27-.86h-10.31c-.75,4.75-2.57,12.51-5.38,17.45l-1.73-.97c.31-.11.52-.31.61-.52ZM146.82,10.24c.11,0,.2,0,.3-.03-.41.81-.89,1.38-1.59,1.38-.41,0-.86-.37-1.2-.89h-8.4c-.34,0-.7.13-1,.39l.79-1.62c.09.29.32.42.5.42h7.83l1.11-1.07c.28.66.94,1.42,1.66,1.42ZM135.72,18.62c0-1.72,1.02-3.19,1.02-3.53,0-.29-.02-.47-.14-.73l2.84,1.44-.16.44c-.23-.13-.43-.16-.61-.16-.32,0-.57.18-.77.44-.41.57-.64,1.25-.64,1.99,0,1.57.79,2.74,4.13,2.74,3.07,0,4.36-.86,4.88-1.88l.73,2.22c-1.41.65-3.02,1.18-5.7,1.18-4.24,0-5.58-1.75-5.58-4.15Z"/>
      <path d="M150.05,5.8c-.34,0-.7.13-1.02.39l.79-1.62c.11.29.32.42.5.42h5.36v-1.7c0-.31-.18-.6-.54-.7l3.75-2.38c.02.76.54,1.33,1.34,1.33.2,0,.39-.05.57-.16-.32.81-.91,1.49-1.59,1.49-.75,0-1.2-.5-1.52-1.28l-.29.18c-.27.21-.27.47-.27,1.25v1.96h9.04l1.16-1.1c.32.71,1,1.44,1.82,1.44.09,0,.16,0,.25-.03-.43.78-.91,1.36-1.68,1.36-.41,0-.91-.34-1.25-.86h-9.33v3.94c.98-.26,2.02-.42,3.13-.42.43,0,.86.03,1.27.08.02-.34.05-.68.05-.99s-.07-.63-.39-.91h3.29v.5c-.7,0-1.11.71-1.34,1.75,3.25.99,5.13,3.63,5.13,6.66,0,3.81-2.91,6.42-9.17,7.1l-.25-.73c5.38-.81,7.76-3.55,7.76-6.35,0-1.91-.95-4.57-3.68-5.64-1.63,7.08-5.72,11.31-9.49,11.31-2,0-3.59-1.33-3.59-3.92,0-3,2.2-6.35,5.83-7.91v-4.47h-5.64ZM153.52,21.16c.75,0,1.48-.21,2.16-.57v-9.06c-2.63,1.59-4.22,4.36-4.22,6.71,0,2.21,1.2,2.92,2.06,2.92ZM157.11,10.84v8.67c2.25-2.14,3.79-6.01,4.29-9.14-.39-.05-.79-.08-1.23-.08-1.11,0-2.13.21-3.06.55Z"/>
      <path d="M189.22,12.51c-4,8.36-6.67,10.19-10.17,10.19-3.07,0-5.04-1.54-5.04-5.64V4.07c0-.31-.18-.6-.54-.71l3.86-2.38c.14.78.61,1.33,1.34,1.33.23,0,.39-.05.57-.13-.32.81-.89,1.49-1.57,1.49-.75,0-1.23-.52-1.54-1.31l-.27.18c-.3.21-.3.47-.3,1.28v13.03c0,3.66,1.25,5.07,3.57,5.07s4.86-2.27,8.83-10.66h2.27c-.45.28-.7.6-1.01,1.25Z"/>
      <path d="M192.15,21.76c2.5-4.36,4.25-11.54,4.95-15.96h-4.47c-.34,0-.7.13-1.02.37l.79-1.62c.11.29.32.44.5.44h4.31c.16-1.04.23-1.88.23-2.43,0-.37-.07-.65-.41-.86l3.13-.89.09.47c-.86.26-1.18.52-1.23,1.25-.02.57-.11,1.44-.27,2.46h9.9l1.16-1.1c.32.68,1.02,1.44,1.82,1.44.11,0,.21,0,.29-.03-.43.78-.95,1.36-1.7,1.36-.43,0-.91-.34-1.27-.86h-10.31c-.75,4.75-2.57,12.51-5.38,17.45l-1.73-.97c.32-.11.53-.31.62-.52ZM210.72,10.24c.11,0,.21,0,.29-.03-.41.81-.88,1.38-1.59,1.38-.41,0-.86-.37-1.2-.89h-8.4c-.34,0-.7.13-1,.39l.79-1.62c.09.29.32.42.5.42h7.83l1.11-1.07c.29.66.94,1.42,1.67,1.42ZM199.62,18.62c0-1.72,1.02-3.19,1.02-3.53,0-.29-.02-.47-.14-.73l2.84,1.44-.16.44c-.23-.13-.43-.16-.61-.16-.32,0-.57.18-.77.44-.41.57-.64,1.25-.64,1.99,0,1.57.79,2.74,4.13,2.74,3.06,0,4.36-.86,4.88-1.88l.73,2.22c-1.41.65-3.02,1.18-5.7,1.18-4.24,0-5.58-1.75-5.58-4.15Z"/>
    </g>
  </g>
</svg>