<?xml version="1.0" encoding="UTF-8"?>
<svg id="_レイヤー_1" data-name="レイヤー_1" xmlns="http://www.w3.org/2000/svg" viewBox="0 0 227 223.37">
  <path d="M36.18,16c3.1,0,6.13.72,9.03,2.14l154.67,76.06c6.98,3.43,11.13,10.05,11.13,17.7,0,7.65-4.18,14.26-11.16,17.68L45.17,205.25c-2.88,1.41-5.91,2.13-8.99,2.13-9.7,0-20.18-7.58-20.18-19.82V35.82c0-12.24,10.47-19.82,20.18-19.82M36.18,0C17.2,0,0,15.09,0,35.82v151.73c0,20.73,17.19,35.82,36.18,35.82,5.31,0,10.76-1.18,16.02-3.75l154.67-75.67c26.81-13.12,26.85-50.93.07-64.1L52.27,3.79c-5.27-2.59-10.75-3.79-16.09-3.79h0Z"/>
</svg>