<?xml version="1.0" encoding="utf-8"?>
<!-- Generator: Adobe Illustrator 28.7.2, SVG Export Plug-In . SVG Version: 9.03 Build 54978)  -->
<svg version="1.0" id="レイヤー_1" xmlns="http://www.w3.org/2000/svg" xmlns:xlink="http://www.w3.org/1999/xlink" x="0px"
	 y="0px" viewBox="0 0 500 500" enable-background="new 0 0 500 500" xml:space="preserve">
<g>
	<path d="M209.03,239.13c-0.34,0-0.73,0.13-1.02,0.37l0.82-1.59c0.09,0.29,0.32,0.42,0.5,0.42h5.7v-2.12c0-0.31-0.16-0.6-0.54-0.71
		l3.77-2.35c0.02,0.76,0.54,1.33,1.34,1.33c0.2,0,0.39-0.05,0.57-0.16c-0.32,0.81-0.91,1.49-1.59,1.49c-0.75,0-1.23-0.55-1.54-1.31
		l-0.25,0.18c-0.29,0.21-0.29,0.44-0.29,1.25v2.38h6.79c0.34,0,0.73-0.13,1.04-0.37l-0.82,1.59c-0.11-0.29-0.32-0.42-0.52-0.42
		h-6.49v5.25c1.16-0.34,2.36-0.55,3.54-0.55c4.36,0,6.38,2.69,6.38,5.56c0,3.89-2.43,6.32-4.97,6.32c-1.75,0-3.16-1.02-3.16-3.24
		c0-0.99,0.09-1.85,1.61-4.44l1.68,1.2c-0.77,0.16-2.04,2.27-2.04,3.76c0,1.12,0.61,1.99,1.63,1.99c1.93,0,3.56-2.66,3.56-5.51
		c0-2.87-1.79-4.99-4.79-4.99c-1.25,0-2.38,0.21-3.43,0.58v5.28c0,3.06-1.52,4.96-3.43,4.96c-2.02,0-3.81-1.28-3.81-3.79
		c0-2.64,2.54-5.2,5.77-6.58v-5.8H209.03z M215.03,245.74c-2.63,1.44-4.22,3.89-4.22,5.69c0,2.06,1.14,3.11,2.25,3.11
		c1.32,0,1.98-1.44,1.98-4.62V245.74z M225.45,241.95v-2.77c0-2.09-0.16-2.51-0.41-2.87l1.82,0.63v5.75
		c0.05,0.03,0.09,0.08,0.14,0.13l0.54-0.55l0.32,0.37l-1.61,1.78c-0.32-0.63-0.89-1.04-1.54-1.04c-0.2,0-0.43,0.03-0.66,0.13
		C224.31,242.39,224.81,241.95,225.45,241.95z"/>
	<path d="M229.88,240.64c0.89-0.16,2.07-0.37,3.38-0.6l-0.45-4.55c-0.02-0.29-0.23-0.57-0.61-0.63l2.61-2.01l0.2,0.42
		c-0.54,0.5-0.73,0.78-0.73,1.28c0,0.13,0,0.24,0.02,0.39l0.5,4.83c1.77-0.29,3.68-0.57,5.4-0.78v-3c0-0.31-0.16-0.6-0.54-0.71
		l3.75-2.27c0.05,0.76,0.5,1.28,1.29,1.28c0.2,0,0.39-0.05,0.57-0.13c-0.32,0.81-0.84,1.49-1.5,1.49c-0.73,0-1.2-0.52-1.52-1.31
		l-0.27,0.18c-0.3,0.21-0.3,0.42-0.3,1.23v3.11c0.68-0.05,1.29-0.08,1.86-0.08c3.77,0,5.43,2.12,5.43,5.04
		c0,3.81-2.88,6.42-8.42,7.39l-0.29-0.71c4.93-1.23,7.02-3.79,7.02-6.69c0-2.35-1.41-4.02-3.77-4.02c-0.48,0-1.11,0.05-1.82,0.16
		v7.47h-1.48v-7.26c-1.63,0.29-3.52,0.68-5.24,1.12l1.36,13.45c0.05,0.03,0.07,0.05,0.09,0.08l0.5-0.68l0.36,0.31l-1.45,2.04
		c-0.34-0.5-0.93-0.84-1.57-0.84c-0.3,0-0.59,0.08-0.89,0.23c0.18-1.1,0.73-1.62,1.34-1.75l-1.27-12.46
		c-1.54,0.44-2.86,0.86-3.59,1.23l-0.61-3.08l0.43-0.1L229.88,240.64z"/>
	<path d="M251.54,238.97c-0.34,0-0.7,0.16-1.02,0.39l0.79-1.62c0.11,0.29,0.32,0.42,0.5,0.42h10.88v-2.4c0-0.31-0.16-0.6-0.54-0.71
		l3.84-2.32c0.05,0.73,0.5,1.2,1.27,1.2c0.18,0,0.39-0.03,0.57-0.13c-0.32,0.84-0.86,1.49-1.54,1.49c-0.7,0-1.2-0.44-1.52-1.23
		l-0.25,0.18c-0.29,0.21-0.29,0.44-0.29,1.25v2.66h3.41l1.16-1.07c0.29,0.7,1,1.44,1.84,1.44c0.07,0,0.16,0,0.23-0.03
		c-0.43,0.78-0.91,1.36-1.66,1.36c-0.43,0-0.91-0.37-1.27-0.89h-3.7v5.17c0.93,0.99,1.72,2.66,1.72,4.73
		c0,4.42-2.84,7.47-11.19,7.94l-0.29-0.81c8.01-0.76,9.81-4,9.81-7.13c0-0.55-0.04-1.07-0.09-1.51c-0.48,1.78-2.13,3.68-4.84,3.68
		c-2.93,0-4.66-1.51-4.66-3.81c0-3.11,2.57-4.91,5.45-4.91c1.04,0,1.91,0.26,2.57,0.7v-4.05H251.54z M262.89,246.31
		c0-1.93-1-3.32-2.95-3.32c-1.93,0-3.7,1.91-3.7,4.02c0,2.04,1.43,3.32,3.18,3.32C261.6,250.33,262.89,248.11,262.89,246.31z"/>
	<path d="M292.05,244.56c0.09,0,0.2,0,0.29-0.03c-0.41,0.89-0.75,1.51-1.52,1.51c-0.43,0-0.84-0.39-1.16-0.91h-1.18
		c-0.64,4.91-1.95,8.8-3.68,11.31l-0.48-0.39c1.23-2.32,2.13-6.11,2.61-10.92h-5.74c-0.59,6.82-2.22,8.51-5.25,8.51
		c-2.11,0-3.66-1.62-3.66-3.92c0-2.64,1.77-5.41,6.13-5.41h1.25c0.14-2.12,0.21-4.68,0.21-7.76h-6.61c-0.32,0-0.7,0.13-1,0.37
		l0.79-1.62c0.09,0.29,0.32,0.44,0.5,0.44h6.29l1.02-1.1c0.3,0.71,1.04,1.44,1.86,1.44c0.07,0,0.16,0,0.23-0.03
		c-0.41,0.76-0.79,1.31-1.48,1.36c0,2.72-0.09,4.99-0.23,6.9h5.77c0.18-2.22,0.3-4.68,0.3-7.29c0-0.29-0.09-0.63-0.3-0.91l3.25,0.94
		l-0.11,0.5c-0.11-0.03-0.23-0.03-0.34-0.03c-0.52,0-0.95,0.31-0.95,1.02c0,2.04-0.11,3.97-0.29,5.77h0.91l1.04-1.04
		C290.8,243.96,291.32,244.56,292.05,244.56z M279.63,245.14h-1.09c-2.86,0-4.61,1.99-4.61,4.7c0,1.78,1.04,2.9,2.22,2.9
		C278.18,252.74,279.2,250.65,279.63,245.14z"/>
	<path d="M294.21,247.28h2.07l2.61,6.87c0.07,0.03,0.14,0.08,0.21,0.13l0.5-0.76l0.39,0.29l-1.36,2.2
		c-0.34-0.44-0.89-0.73-1.45-0.73c-0.32,0-0.66,0.11-0.95,0.34c0.07-0.91,0.39-1.49,0.89-1.72l-1.63-4.47
		C294.82,247.83,294.57,247.51,294.21,247.28z"/>
	<path d="M326.81,248.77c2.36,1.28,6.08,3.87,7.13,4.75l-1.16,2.06c0-0.78-3.7-3.63-5.97-4.99v0.21c0,2.74-1.66,4.81-4.86,4.81
		c-2.82,0-4.56-1.52-4.56-4.02c0-2.25,2-4.54,5.09-4.54c1.07,0,2.04,0.23,2.79,0.7v-4.31h-9.17c-0.34,0-0.7,0.16-1.02,0.39
		l0.79-1.62c0.11,0.29,0.32,0.42,0.5,0.42h8.9v-4.34h-9.17c-0.34,0-0.7,0.13-1.02,0.39l0.79-1.62c0.11,0.29,0.32,0.42,0.5,0.42h8.9
		v-1.88c0-0.31-0.16-0.6-0.54-0.7l2.82-1.8l0.2,0.44c-0.79,0.52-0.93,0.86-0.93,1.62v2.32h3.79l1.11-1.07
		c0.27,0.68,0.91,1.44,1.63,1.44c0.09,0,0.2-0.03,0.3-0.05c-0.41,0.81-0.86,1.38-1.59,1.38c-0.41,0-0.86-0.37-1.18-0.89h-4.06v4.34
		h3.79l1.11-1.07c0.27,0.68,0.91,1.44,1.63,1.44c0.09,0,0.2-0.03,0.3-0.05c-0.41,0.81-0.86,1.38-1.59,1.38
		c-0.41,0-0.86-0.37-1.18-0.89h-4.06V248.77z M325.27,250.88c0-1.64-1.18-2.98-2.79-2.98c-1.93,0-3.38,1.75-3.38,3.63
		c0,1.93,1.32,3.13,2.91,3.13C323.79,254.67,325.27,252.92,325.27,250.88z"/>
	<path d="M336.26,254.49c2.5-4.36,4.25-11.54,4.95-15.96h-4.47c-0.34,0-0.7,0.13-1.02,0.37l0.79-1.62c0.11,0.29,0.32,0.44,0.5,0.44
		h4.31c0.16-1.04,0.23-1.88,0.23-2.43c0-0.37-0.07-0.65-0.41-0.86l3.13-0.89l0.09,0.47c-0.86,0.26-1.18,0.52-1.23,1.25
		c-0.02,0.57-0.11,1.44-0.27,2.46h9.9l1.16-1.1c0.32,0.68,1.02,1.44,1.82,1.44c0.11,0,0.2,0,0.3-0.03c-0.43,0.78-0.95,1.36-1.7,1.36
		c-0.43,0-0.91-0.34-1.27-0.86h-10.31c-0.75,4.75-2.57,12.51-5.38,17.45l-1.73-0.97C335.96,254.9,336.17,254.7,336.26,254.49z
		 M354.83,242.97c0.11,0,0.2,0,0.3-0.03c-0.41,0.81-0.89,1.38-1.59,1.38c-0.41,0-0.86-0.37-1.2-0.89h-8.4c-0.34,0-0.7,0.13-1,0.39
		l0.79-1.62c0.09,0.29,0.32,0.42,0.5,0.42h7.83l1.11-1.07C353.45,242.21,354.11,242.97,354.83,242.97z M343.73,251.35
		c0-1.72,1.02-3.19,1.02-3.53c0-0.29-0.02-0.47-0.14-0.73l2.84,1.44l-0.16,0.44c-0.23-0.13-0.43-0.16-0.61-0.16
		c-0.32,0-0.57,0.18-0.77,0.44c-0.41,0.57-0.64,1.25-0.64,1.99c0,1.57,0.79,2.74,4.13,2.74c3.07,0,4.36-0.86,4.88-1.88l0.73,2.22
		c-1.41,0.65-3.02,1.18-5.7,1.18C345.07,255.51,343.73,253.75,343.73,251.35z"/>
	<path d="M358.06,238.53c-0.34,0-0.7,0.13-1.02,0.39l0.79-1.62c0.11,0.29,0.32,0.42,0.5,0.42h5.36v-1.7c0-0.31-0.18-0.6-0.54-0.7
		l3.75-2.38c0.02,0.76,0.54,1.33,1.34,1.33c0.2,0,0.39-0.05,0.57-0.16c-0.32,0.81-0.91,1.49-1.59,1.49c-0.75,0-1.2-0.5-1.52-1.28
		l-0.29,0.18c-0.27,0.21-0.27,0.47-0.27,1.25v1.96h9.04l1.16-1.1c0.32,0.71,1,1.44,1.82,1.44c0.09,0,0.16,0,0.25-0.03
		c-0.43,0.78-0.91,1.36-1.68,1.36c-0.41,0-0.91-0.34-1.25-0.86h-9.33v3.94c0.98-0.26,2.02-0.42,3.13-0.42
		c0.43,0,0.86,0.03,1.27,0.08c0.02-0.34,0.05-0.68,0.05-0.99s-0.07-0.63-0.39-0.91h3.29v0.5c-0.7,0-1.11,0.71-1.34,1.75
		c3.25,0.99,5.13,3.63,5.13,6.66c0,3.81-2.91,6.42-9.17,7.1l-0.25-0.73c5.38-0.81,7.76-3.55,7.76-6.35c0-1.91-0.95-4.57-3.68-5.64
		c-1.63,7.08-5.72,11.31-9.49,11.31c-2,0-3.59-1.33-3.59-3.92c0-3,2.2-6.35,5.83-7.91v-4.47H358.06z M361.53,253.89
		c0.75,0,1.48-0.21,2.16-0.57v-9.06c-2.63,1.59-4.22,4.36-4.22,6.71C359.47,253.18,360.67,253.89,361.53,253.89z M365.12,243.57
		v8.67c2.25-2.14,3.79-6.01,4.29-9.14c-0.39-0.05-0.79-0.08-1.23-0.08C367.07,243.02,366.05,243.23,365.12,243.57z"/>
	<path d="M397.23,245.24c-4,8.36-6.67,10.19-10.17,10.19c-3.07,0-5.04-1.54-5.04-5.64V236.8c0-0.31-0.18-0.6-0.54-0.71l3.86-2.38
		c0.14,0.78,0.61,1.33,1.34,1.33c0.23,0,0.39-0.05,0.57-0.13c-0.32,0.81-0.89,1.49-1.57,1.49c-0.75,0-1.23-0.52-1.54-1.31
		l-0.27,0.18c-0.3,0.21-0.3,0.47-0.3,1.28v13.03c0,3.66,1.25,5.07,3.57,5.07c2.32,0,4.86-2.27,8.83-10.66h2.27
		C397.79,244.27,397.54,244.59,397.23,245.24z"/>
	<path d="M400.16,254.49c2.5-4.36,4.25-11.54,4.95-15.96h-4.47c-0.34,0-0.7,0.13-1.02,0.37l0.79-1.62c0.11,0.29,0.32,0.44,0.5,0.44
		h4.31c0.16-1.04,0.23-1.88,0.23-2.43c0-0.37-0.07-0.65-0.41-0.86l3.13-0.89l0.09,0.47c-0.86,0.26-1.18,0.52-1.23,1.25
		c-0.02,0.57-0.11,1.44-0.27,2.46h9.9l1.16-1.1c0.32,0.68,1.02,1.44,1.82,1.44c0.11,0,0.21,0,0.29-0.03
		c-0.43,0.78-0.95,1.36-1.7,1.36c-0.43,0-0.91-0.34-1.27-0.86h-10.31c-0.75,4.75-2.57,12.51-5.38,17.45l-1.73-0.97
		C399.86,254.9,400.07,254.7,400.16,254.49z M418.73,242.97c0.11,0,0.21,0,0.29-0.03c-0.41,0.81-0.88,1.38-1.59,1.38
		c-0.41,0-0.86-0.37-1.2-0.89h-8.4c-0.34,0-0.7,0.13-1,0.39l0.79-1.62c0.09,0.29,0.32,0.42,0.5,0.42h7.83l1.11-1.07
		C417.35,242.21,418,242.97,418.73,242.97z M407.63,251.35c0-1.72,1.02-3.19,1.02-3.53c0-0.29-0.02-0.47-0.14-0.73l2.84,1.44
		l-0.16,0.44c-0.23-0.13-0.43-0.16-0.61-0.16c-0.32,0-0.57,0.18-0.77,0.44c-0.41,0.57-0.64,1.25-0.64,1.99
		c0,1.57,0.79,2.74,4.13,2.74c3.06,0,4.36-0.86,4.88-1.88l0.73,2.22c-1.41,0.65-3.02,1.18-5.7,1.18
		C408.97,255.51,407.63,253.75,407.63,251.35z"/>
</g>
</svg>
